<?xml version="1.0" encoding="iso-8859-1"?>
<!-- Generator: Adobe Illustrator 19.0.0, SVG Export Plug-In . SVG Version: 6.00 Build 0)  -->
<svg version="1.1" id="Capa_1" xmlns="http://www.w3.org/2000/svg" xmlns:xlink="http://www.w3.org/1999/xlink" x="0px" y="0px"
	 viewBox="0 0 512 512" style="enable-background:new 0 0 512 512;" xml:space="preserve">
<g>
	<g>
		<path d="M273.381,0.798C267.933,0.454,262.506,0,257,0C193.926,0,133.528,23.994,86.814,65.603L256,234.789l64.647-64.647
			C275.582,125.076,258.899,60.787,273.381,0.798z"/>
	</g>
</g>
<g>
	<g>
		<path d="M65.603,86.814C23.994,133.528,0,193.926,0,257c0,5.51,0.454,10.941,0.798,16.39
			c59.991-14.473,124.291,2.192,169.344,47.257L234.789,256L65.603,86.814z"/>
	</g>
</g>
<g>
	<g>
		<path d="M303.265,4.327c-13.603,50.96,0.161,106.172,38.593,144.604l84.328-84.328C391.099,33.351,348.894,12.649,303.265,4.327z"
			/>
	</g>
</g>
<g>
	<g>
		<path d="M447.397,85.814l-82.114,82.114c40.606,26.808,91.582,31.727,136.256,14.676
			C491.038,146.964,472.594,114.102,447.397,85.814z"/>
	</g>
</g>
<g>
	<g>
		<path d="M167.905,365.305l-82.092,82.092c28.352,25.254,61.298,43.713,97.031,54.203c4.319-11.217,7.379-22.975,8.889-35.157
			C196.192,430.338,187.511,394.838,167.905,365.305z"/>
	</g>
</g>
<g>
	<g>
		<path d="M256,277.211l-66.599,66.599c25.974,36.383,37.716,80.944,32.098,126.324c-1.626,13.141-4.774,25.862-9.124,38.077
			C226.346,510.553,240.549,512,255,512c63.074,0,123.472-23.994,170.186-65.603L256,277.211z"/>
	</g>
</g>
<g>
	<g>
		<path d="M508.195,212.26c-19.449,6.879-39.792,10.499-60.165,10.499c-36.663,0-73.011-11.548-104.024-33.554L277.211,256
			l169.186,169.186C488.006,378.472,512,318.074,512,255C512,240.509,510.55,226.267,508.195,212.26z"/>
	</g>
</g>
<g>
	<g>
		<path d="M4.327,303.265c8.322,45.628,29.024,87.834,60.276,122.921l84.327-84.327C110.49,303.417,55.263,289.672,4.327,303.265z"
			/>
	</g>
</g>
<g>
</g>
<g>
</g>
<g>
</g>
<g>
</g>
<g>
</g>
<g>
</g>
<g>
</g>
<g>
</g>
<g>
</g>
<g>
</g>
<g>
</g>
<g>
</g>
<g>
</g>
<g>
</g>
<g>
</g>
</svg>
