<?xml version="1.0" encoding="iso-8859-1"?>
<!-- Generator: Adobe Illustrator 19.0.0, SVG Export Plug-In . SVG Version: 6.00 Build 0)  -->
<svg version="1.1" id="Capa_1" xmlns="http://www.w3.org/2000/svg" xmlns:xlink="http://www.w3.org/1999/xlink" x="0px" y="0px"
	 viewBox="0 0 512 512" style="enable-background:new 0 0 512 512;" xml:space="preserve">
<g>
	<g>
		<circle cx="128" cy="162.133" r="25.6"/>
	</g>
</g>
<g>
	<g>
		<circle cx="238.933" cy="221.867" r="25.6"/>
	</g>
</g>
<g>
	<g>
		<circle cx="247.467" cy="102.4" r="25.6"/>
	</g>
</g>
<g>
	<g>
		<path d="M256,0C114.842,0,0,114.842,0,256s114.842,256,256,256s256-114.842,256-256S397.158,0,256,0z M247.467,59.733
			c23.526,0,42.667,19.14,42.667,42.667c0,23.526-19.14,42.667-42.667,42.667c-23.526,0-42.667-19.14-42.667-42.667
			C204.8,78.874,223.94,59.733,247.467,59.733z M128,204.8c-23.526,0-42.667-19.14-42.667-42.667
			c0-23.526,19.14-42.667,42.667-42.667c23.526,0,42.667,19.14,42.667,42.667C170.667,185.66,151.526,204.8,128,204.8z
			 M196.267,221.867c0-23.526,19.14-42.667,42.667-42.667c23.526,0,42.667,19.14,42.667,42.667c0,23.526-19.14,42.667-42.667,42.667
			C215.407,264.533,196.267,245.393,196.267,221.867z M371.55,433.843c-36.045,23.219-75.989,35.49-115.533,35.49
			c-4.71,0.367-8.55-3.806-8.55-8.533c0-4.71,3.823-8.533,8.533-8.533c0,0,0.009,0,0.017,0c35.738,0,73.489-11.639,106.3-32.776
			c3.959-2.551,9.242-1.408,11.793,2.551C376.661,426.001,375.518,431.292,371.55,433.843z M424.764,389.368
			c-1.69,2.082-4.156,3.166-6.639,3.166c-1.886,0-3.789-0.623-5.367-1.903c-3.661-2.97-4.224-8.346-1.263-12.006
			c26.667-32.922,40.755-75.324,40.764-122.633c0-4.71,3.823-8.533,8.533-8.533s8.533,3.823,8.533,8.533
			C469.325,307.26,453.914,353.374,424.764,389.368z"/>
	</g>
</g>
<g>
</g>
<g>
</g>
<g>
</g>
<g>
</g>
<g>
</g>
<g>
</g>
<g>
</g>
<g>
</g>
<g>
</g>
<g>
</g>
<g>
</g>
<g>
</g>
<g>
</g>
<g>
</g>
<g>
</g>
</svg>
